# xmcd CD database file
#
# Track frame offsets:
#	150
#	13937
#	28099
#	38721
#	54177
#	68712
#	81028
#	95382
#	109414
#	123194
#	137127
#	149294
#	161375
#	175828
#	188526
#	200382
#	212950
#	225112
#	238695
#	251129
#	266012
#	281345
#	294226
#
# Disc length: 4106 seconds
#
# Revision: 0
# Processed by: cddbd v1.5.1PL0 Copyright (c) Steve Scherf et al.
# Submitted via: CDex 1.51
#
DISCID=3d100817
DTITLE=Fats Waller - Classics 1941
DYEAR=1941
DGENRE=Jazz
TTITLE0=Georgia On My Mind
TTITLE1=Rockin' Chair
TTITLE2=Carolina Shout
TTITLE3=Honeysuckle Rose
TTITLE4=Ring Dem Bells
TTITLE5=Twenty-Four Robbers
TTITLE6=I Understand
TTITLE7=Sad Sap Sucker Am I
TTITLE8=Headlines In The News
TTITLE9=Chant Of The Groove
TTITLE10=Come And Get It
TTITLE11=Rump Steak Serenade
TTITLE12=Ain't Nothing To It
TTITLE13=Oh Baby, Sweet Baby
TTITLE14=Buck Jumpin'
TTITLE15=That Gets It, Mr. Joe
TTITLE16=The Bells Of San Raquel
TTITLE17=Bessie, Bessie, Bessie
TTITLE18=Clarinet Marmalade
TTITLE19=Winter Weather
TTITLE20=Cash For Your Trash
TTITLE21=Don't Give Me That Jive
TTITLE22=Your Socks Don't Match
EXTD=YEAR: 1941
EXTT0=
EXTT1=
EXTT2=
EXTT3=
EXTT4=
EXTT5=
EXTT6=
EXTT7=
EXTT8=
EXTT9=
EXTT10=
EXTT11=
EXTT12=
EXTT13=
EXTT14=
EXTT15=
EXTT16=
EXTT17=
EXTT18=
EXTT19=
EXTT20=
EXTT21=
EXTT22=
PLAYORDER=
